<svg xmlns="http://www.w3.org/2000/svg" viewBox="0 0 1200 400" preserveAspectRatio="none" class="zelda-landscape">
  <!-- Mountains -->
  <path fill="#064e3b" d="M0,400 L0,250 C30,250 60,240 90,230 C120,220 150,210 180,200 C200,195 220,190 240,195 C260,200 280,230 300,240 C310,245 320,240 330,230 C340,220 350,210 360,200 C370,190 380,180 395,185 C410,190 425,210 440,220 C455,230 470,240 485,230 C500,220 515,190 530,180 C540,172 550,175 560,180 C570,185 580,195 590,200 C600,205 610,205 620,200 C630,195 640,185 650,180 C660,175 670,175 680,180 C690,185 700,195 710,200 C720,205 730,205 740,200 C750,195 760,185 770,180 C780,175 790,175 800,180 C810,185 820,195 830,200 C840,205 850,205 860,200 C870,195 880,185 890,180 C900,175 910,175 920,180 C930,185 940,195 950,200 C960,205 970,205 980,200 C990,195 1000,185 1010,180 C1020,175 1030,175 1040,180 C1050,185 1060,195 1070,200 C1080,205 1090,205 1100,200 C1110,195 1120,185 1130,180 C1140,175 1150,175 1160,180 C1170,185 1180,195 1190,200 L1200,200 L1200,400 Z" opacity="0.8" />
  
  <!-- Trees -->
  <path fill="#064e3b" d="M100,400 L100,350 C110,350 120,340 130,330 C140,320 150,310 160,300 C170,290 180,280 190,270 C200,260 210,250 220,240 C230,230 240,220 250,210 C260,200 270,190 280,180 C290,170 300,160 310,150 C320,140 330,130 340,120 C350,110 360,100 370,90 C380,80 390,70 400,60 C410,50 420,40 430,30 C440,20 450,10 460,0 L460,400 Z" opacity="0.6" />
  <path fill="#064e3b" d="M800,400 L800,350 C810,350 820,340 830,330 C840,320 850,310 860,300 C870,290 880,280 890,270 C900,260 910,250 920,240 C930,230 940,220 950,210 C960,200 970,190 980,180 C990,170 1000,160 1010,150 C1020,140 1030,130 1040,120 C1050,110 1060,100 1070,90 C1080,80 1090,70 1100,60 C1110,50 1120,40 1130,30 C1140,20 1150,10 1160,0 L1160,400 Z" opacity="0.6" />
</svg>